# Blender 4.3.2
# www.blender.org
o Icosphere
o Icosphere.001
v -1.992132 -1.000000 0.000000
v -1.268524 -0.447220 0.525725
v -2.268520 -0.447220 0.850649
v -2.886558 -0.447216 0.000000
v -2.268520 -0.447220 -0.850649
v -1.268524 -0.447220 -0.525725
v -1.715744 0.447220 0.850649
v -2.715739 0.447220 0.525725
v -2.715739 0.447220 -0.525725
v -1.715744 0.447220 -0.850649
v -1.097705 0.447216 0.000000
v -1.992132 1.000000 0.000000
v -2.154587 -0.850654 0.499995
v -1.566809 -0.850654 0.309011
v -1.729263 -0.525738 0.809012
v -1.141484 -0.525736 0.000000
v -1.566809 -0.850654 -0.309011
v -2.517861 -0.850652 0.000000
v -2.680321 -0.525736 0.499997
v -2.154587 -0.850654 -0.499995
v -2.680321 -0.525736 -0.499997
v -1.729263 -0.525738 -0.809012
v -1.041074 0.000000 0.309013
v -1.041074 0.000000 -0.309013
v -1.992132 0.000000 1.000000
v -1.404346 0.000000 0.809017
v -2.943190 0.000000 0.309013
v -2.579917 0.000000 0.809017
v -2.579917 0.000000 -0.809017
v -2.943190 0.000000 -0.309013
v -1.404346 0.000000 -0.809017
v -1.992132 0.000000 -1.000000
v -1.303942 0.525736 0.499997
v -2.255001 0.525738 0.809012
v -2.842780 0.525736 0.000000
v -2.255001 0.525738 -0.809012
v -1.303942 0.525736 -0.499997
v -1.829676 0.850654 0.499995
v -1.466402 0.850652 0.000000
v -2.417454 0.850654 0.309011
v -2.417454 0.850654 -0.309011
v -1.829676 0.850654 -0.499995
v -2.154587 -0.850654 0.499995
v -2.154587 -0.850654 0.499995
v -2.154587 -0.850654 0.499995
v -2.154587 -0.850654 0.499995
v -2.154587 -0.850654 0.499995
v -1.992132 -1.000000 0.000000
v -1.992132 -1.000000 0.000000
v -1.992132 -1.000000 0.000000
v -1.992132 -1.000000 0.000000
v -1.566809 -0.850654 0.309011
v -1.566809 -0.850654 0.309011
v -1.566809 -0.850654 0.309011
v -1.566809 -0.850654 0.309011
v -1.566809 -0.850654 0.309011
v -1.268524 -0.447220 0.525725
v -1.268524 -0.447220 0.525725
v -1.268524 -0.447220 0.525725
v -1.268524 -0.447220 0.525725
v -1.729263 -0.525738 0.809012
v -1.729263 -0.525738 0.809012
v -1.729263 -0.525738 0.809012
v -1.729263 -0.525738 0.809012
v -1.729263 -0.525738 0.809012
v -2.268520 -0.447220 0.850649
v -2.268520 -0.447220 0.850649
v -2.268520 -0.447220 0.850649
v -2.268520 -0.447220 0.850649
v -1.141484 -0.525736 0.000000
v -1.141484 -0.525736 0.000000
v -1.141484 -0.525736 0.000000
v -1.141484 -0.525736 0.000000
v -1.141484 -0.525736 0.000000
v -1.566809 -0.850654 -0.309011
v -1.566809 -0.850654 -0.309011
v -1.566809 -0.850654 -0.309011
v -1.566809 -0.850654 -0.309011
v -1.566809 -0.850654 -0.309011
v -1.268524 -0.447220 -0.525725
v -1.268524 -0.447220 -0.525725
v -1.268524 -0.447220 -0.525725
v -1.268524 -0.447220 -0.525725
v -2.517861 -0.850652 0.000000
v -2.517861 -0.850652 0.000000
v -2.517861 -0.850652 0.000000
v -2.517861 -0.850652 0.000000
v -2.517861 -0.850652 0.000000
v -2.680321 -0.525736 0.499997
v -2.680321 -0.525736 0.499997
v -2.680321 -0.525736 0.499997
v -2.680321 -0.525736 0.499997
v -2.680321 -0.525736 0.499997
v -2.886558 -0.447216 0.000000
v -2.886558 -0.447216 0.000000
v -2.886558 -0.447216 0.000000
v -2.886558 -0.447216 0.000000
v -2.154587 -0.850654 -0.499995
v -2.154587 -0.850654 -0.499995
v -2.154587 -0.850654 -0.499995
v -2.154587 -0.850654 -0.499995
v -2.154587 -0.850654 -0.499995
v -2.680321 -0.525736 -0.499997
v -2.680321 -0.525736 -0.499997
v -2.680321 -0.525736 -0.499997
v -2.680321 -0.525736 -0.499997
v -2.680321 -0.525736 -0.499997
v -2.268520 -0.447220 -0.850649
v -2.268520 -0.447220 -0.850649
v -2.268520 -0.447220 -0.850649
v -2.268520 -0.447220 -0.850649
v -1.729263 -0.525738 -0.809012
v -1.729263 -0.525738 -0.809012
v -1.729263 -0.525738 -0.809012
v -1.729263 -0.525738 -0.809012
v -1.729263 -0.525738 -0.809012
v -1.041074 0.000000 0.309013
v -1.041074 0.000000 0.309013
v -1.041074 0.000000 0.309013
v -1.041074 0.000000 0.309013
v -1.041074 0.000000 0.309013
v -1.041074 0.000000 -0.309013
v -1.041074 0.000000 -0.309013
v -1.041074 0.000000 -0.309013
v -1.041074 0.000000 -0.309013
v -1.041074 0.000000 -0.309013
v -1.097705 0.447216 0.000000
v -1.097705 0.447216 0.000000
v -1.097705 0.447216 0.000000
v -1.097705 0.447216 0.000000
v -1.992132 0.000000 1.000000
v -1.992132 0.000000 1.000000
v -1.992132 0.000000 1.000000
v -1.992132 0.000000 1.000000
v -1.992132 0.000000 1.000000
v -1.404346 0.000000 0.809017
v -1.404346 0.000000 0.809017
v -1.404346 0.000000 0.809017
v -1.404346 0.000000 0.809017
v -1.404346 0.000000 0.809017
v -1.715744 0.447220 0.850649
v -1.715744 0.447220 0.850649
v -1.715744 0.447220 0.850649
v -1.715744 0.447220 0.850649
v -2.943190 0.000000 0.309013
v -2.943190 0.000000 0.309013
v -2.943190 0.000000 0.309013
v -2.943190 0.000000 0.309013
v -2.943190 0.000000 0.309013
v -2.579917 0.000000 0.809017
v -2.579917 0.000000 0.809017
v -2.579917 0.000000 0.809017
v -2.579917 0.000000 0.809017
v -2.579917 0.000000 0.809017
v -2.715739 0.447220 0.525725
v -2.715739 0.447220 0.525725
v -2.715739 0.447220 0.525725
v -2.715739 0.447220 0.525725
v -2.579917 0.000000 -0.809017
v -2.579917 0.000000 -0.809017
v -2.579917 0.000000 -0.809017
v -2.579917 0.000000 -0.809017
v -2.579917 0.000000 -0.809017
v -2.943190 0.000000 -0.309013
v -2.943190 0.000000 -0.309013
v -2.943190 0.000000 -0.309013
v -2.943190 0.000000 -0.309013
v -2.943190 0.000000 -0.309013
v -2.715739 0.447220 -0.525725
v -2.715739 0.447220 -0.525725
v -2.715739 0.447220 -0.525725
v -2.715739 0.447220 -0.525725
v -1.404346 0.000000 -0.809017
v -1.404346 0.000000 -0.809017
v -1.404346 0.000000 -0.809017
v -1.404346 0.000000 -0.809017
v -1.404346 0.000000 -0.809017
v -1.992132 0.000000 -1.000000
v -1.992132 0.000000 -1.000000
v -1.992132 0.000000 -1.000000
v -1.992132 0.000000 -1.000000
v -1.992132 0.000000 -1.000000
v -1.715744 0.447220 -0.850649
v -1.715744 0.447220 -0.850649
v -1.715744 0.447220 -0.850649
v -1.715744 0.447220 -0.850649
v -1.303942 0.525736 0.499997
v -1.303942 0.525736 0.499997
v -1.303942 0.525736 0.499997
v -1.303942 0.525736 0.499997
v -1.303942 0.525736 0.499997
v -2.255001 0.525738 0.809012
v -2.255001 0.525738 0.809012
v -2.255001 0.525738 0.809012
v -2.255001 0.525738 0.809012
v -2.255001 0.525738 0.809012
v -2.842780 0.525736 0.000000
v -2.842780 0.525736 0.000000
v -2.842780 0.525736 0.000000
v -2.842780 0.525736 0.000000
v -2.842780 0.525736 0.000000
v -2.255001 0.525738 -0.809012
v -2.255001 0.525738 -0.809012
v -2.255001 0.525738 -0.809012
v -2.255001 0.525738 -0.809012
v -2.255001 0.525738 -0.809012
v -1.303942 0.525736 -0.499997
v -1.303942 0.525736 -0.499997
v -1.303942 0.525736 -0.499997
v -1.303942 0.525736 -0.499997
v -1.303942 0.525736 -0.499997
v -1.829676 0.850654 0.499995
v -1.829676 0.850654 0.499995
v -1.829676 0.850654 0.499995
v -1.829676 0.850654 0.499995
v -1.829676 0.850654 0.499995
v -1.466402 0.850652 0.000000
v -1.466402 0.850652 0.000000
v -1.466402 0.850652 0.000000
v -1.466402 0.850652 0.000000
v -1.466402 0.850652 0.000000
v -1.992132 1.000000 0.000000
v -1.992132 1.000000 0.000000
v -1.992132 1.000000 0.000000
v -1.992132 1.000000 0.000000
v -2.417454 0.850654 0.309011
v -2.417454 0.850654 0.309011
v -2.417454 0.850654 0.309011
v -2.417454 0.850654 0.309011
v -2.417454 0.850654 0.309011
v -2.417454 0.850654 -0.309011
v -2.417454 0.850654 -0.309011
v -2.417454 0.850654 -0.309011
v -2.417454 0.850654 -0.309011
v -2.417454 0.850654 -0.309011
v -1.829676 0.850654 -0.499995
v -1.829676 0.850654 -0.499995
v -1.829676 0.850654 -0.499995
v -1.829676 0.850654 -0.499995
v -1.829676 0.850654 -0.499995
vn 0.1024 -0.9435 0.3151
vn 0.7002 -0.6617 0.2680
vn -0.2680 -0.9435 0.1947
vn -0.2680 -0.9435 -0.1947
vn 0.1024 -0.9435 -0.3151
vn 0.9050 -0.3304 0.2680
vn 0.0247 -0.3304 0.9435
vn -0.8897 -0.3304 0.3151
vn -0.5746 -0.3304 -0.7488
vn 0.5346 -0.3304 -0.7779
vn 0.8026 -0.1256 0.5831
vn -0.3066 -0.1256 0.9435
vn -0.9921 -0.1256 -0.0000
vn -0.3066 -0.1256 -0.9435
vn 0.8026 -0.1256 -0.5831
vn 0.4089 0.6617 0.6284
vn -0.7002 0.6617 -0.2680
vn 0.0385 0.6617 -0.7488
vn 0.7240 0.6617 -0.1947
vn 0.2680 0.9435 -0.1947
vn 0.4911 0.7947 -0.3568
vn 0.4089 0.6617 -0.6284
vn -0.1024 0.9435 -0.3151
vn -0.1876 0.7947 -0.5773
vn -0.4713 0.6617 -0.5831
vn -0.3313 0.9435 -0.0000
vn -0.6071 0.7947 -0.0000
vn -0.7002 0.6617 0.2680
vn -0.1024 0.9435 0.3151
vn -0.1876 0.7947 0.5773
vn 0.0385 0.6617 0.7488
vn 0.2680 0.9435 0.1947
vn 0.4911 0.7947 0.3568
vn 0.7240 0.6617 0.1947
vn 0.8897 0.3304 -0.3151
vn 0.7947 0.1876 -0.5773
vn 0.5746 0.3304 -0.7488
vn -0.0247 0.3304 -0.9435
vn -0.3035 0.1876 -0.9342
vn -0.5346 0.3304 -0.7779
vn -0.9050 0.3304 -0.2680
vn -0.9822 0.1876 -0.0000
vn -0.9050 0.3304 0.2680
vn -0.5346 0.3304 0.7779
vn -0.3035 0.1876 0.9342
vn -0.0247 0.3304 0.9435
vn 0.5746 0.3304 0.7488
vn 0.7947 0.1876 0.5773
vn 0.8897 0.3304 0.3151
vn 0.3066 0.1256 -0.9435
vn 0.3035 -0.1876 -0.9342
vn 0.0247 -0.3304 -0.9435
vn -0.8026 0.1256 -0.5831
vn -0.7947 -0.1876 -0.5773
vn -0.8897 -0.3304 -0.3151
vn -0.8026 0.1256 0.5831
vn -0.7947 -0.1876 0.5773
vn -0.5746 -0.3304 0.7488
vn 0.3066 0.1256 0.9435
vn 0.3035 -0.1876 0.9342
vn 0.5346 -0.3304 0.7779
vn 0.9921 0.1256 -0.0000
vn 0.9822 -0.1876 -0.0000
vn 0.9050 -0.3304 -0.2680
vn 0.4713 -0.6617 -0.5831
vn 0.1876 -0.7947 -0.5773
vn -0.0385 -0.6617 -0.7488
vn -0.4089 -0.6617 -0.6284
vn -0.4911 -0.7947 -0.3568
vn -0.7240 -0.6617 -0.1947
vn -0.7240 -0.6617 0.1947
vn -0.4911 -0.7947 0.3568
vn -0.4089 -0.6617 0.6284
vn 0.7002 -0.6617 -0.2680
vn 0.6071 -0.7947 -0.0000
vn 0.3313 -0.9435 -0.0000
vn -0.0385 -0.6617 0.7488
vn 0.1876 -0.7947 0.5773
vn 0.4713 -0.6617 0.5831
vn -0.4713 0.6617 0.5831
vt 0.181819 0.000000
vt 0.227273 0.078731
vt 0.136365 0.078731
vt 0.272728 0.157461
vt 0.318182 0.078731
vt 0.363637 0.157461
vt 0.909091 0.000000
vt 0.954545 0.078731
vt 0.863636 0.078731
vt 0.727273 0.000000
vt 0.772727 0.078731
vt 0.681818 0.078731
vt 0.545455 0.000000
vt 0.590909 0.078731
vt 0.500000 0.078731
vt 0.318182 0.236191
vt 0.090910 0.157461
vt 0.181819 0.157461
vt 0.136365 0.236191
vt 0.818182 0.157461
vt 0.909091 0.157461
vt 0.863636 0.236191
vt 0.636364 0.157461
vt 0.727273 0.157461
vt 0.681818 0.236191
vt 0.454546 0.157461
vt 0.545455 0.157461
vt 0.500000 0.236191
vt 0.227273 0.236191
vt 0.045455 0.236191
vt 0.772727 0.236191
vt 0.590909 0.236191
vt 0.409092 0.236191
vt 0.181819 0.314921
vt 0.272728 0.314921
vt 0.227273 0.393651
vt 0.727273 0.314921
vt 0.818182 0.314921
vt 0.772727 0.393651
vt 0.545455 0.314921
vt 0.636364 0.314921
vt 0.590909 0.393651
vt 0.363637 0.314921
vt 0.454546 0.314921
vt 0.409092 0.393651
vt 0.500000 0.393651
vt 0.454546 0.472382
vt 0.681818 0.393651
vt 0.636364 0.472382
vt 0.863636 0.393651
vt 0.818182 0.472382
vt 0.909091 0.314921
vt 0.045455 0.393651
vt 0.136365 0.393651
vt 0.090910 0.472382
vt 0.090910 0.314921
vt 0.318182 0.393651
vt 0.272728 0.472382
vt 0.000000 0.314921
vt 0.954545 0.236191
vt 1.000000 0.157461
vt 0.409092 0.078731
vt 0.363637 0.000000
s 0
f 48/1/1 53/2/1 43/3/1
f 57/4/2 52/5/2 70/6/2
f 49/7/3 45/8/3 84/9/3
f 50/10/4 86/11/4 98/12/4
f 51/13/5 100/14/5 76/15/5
f 58/4/6 72/6/6 117/16/6
f 66/17/7 61/18/7 131/19/7
f 94/20/8 89/21/8 145/22/8
f 108/23/9 103/24/9 159/25/9
f 81/26/10 112/27/10 173/28/10
f 60/4/11 119/16/11 137/29/11
f 69/17/12 133/19/12 151/30/12
f 97/20/13 147/22/13 165/31/13
f 111/23/14 161/25/14 179/32/14
f 83/26/15 175/28/15 123/33/15
f 142/34/16 187/35/16 212/36/16
f 170/37/17 197/38/17 231/39/17
f 184/40/18 202/41/18 236/42/18
f 128/43/19 207/44/19 218/45/19
f 217/45/20 237/46/20 222/47/20
f 39/45/21 209/44/21 238/46/21
f 208/44/22 186/40/22 240/46/22
f 239/42/23 232/48/23 225/49/23
f 42/42/24 204/41/24 233/48/24
f 203/41/25 172/37/25 235/48/25
f 234/39/26 227/50/26 224/51/26
f 41/39/27 199/38/27 228/50/27
f 198/38/28 156/52/28 226/50/28
f 229/53/29 213/54/29 223/55/29
f 230/53/30 194/56/30 214/54/30
f 193/56/31 144/34/31 216/54/31
f 215/36/32 219/57/32 12/58/32
f 38/36/33 189/35/33 220/57/33
f 188/35/34 130/43/34 221/57/34
f 122/33/35 210/44/35 127/43/35
f 24/33/36 176/28/36 211/44/36
f 174/28/37 185/40/37 37/44/37
f 178/32/38 205/41/38 183/40/38
f 32/32/39 162/25/39 206/41/39
f 160/25/40 171/37/40 36/41/40
f 164/31/41 200/38/41 169/37/41
f 30/31/42 148/22/42 201/38/42
f 146/22/43 157/52/43 35/38/43
f 150/30/44 192/56/44 155/59/44
f 28/30/45 134/19/45 195/56/45
f 132/19/46 143/34/46 196/56/46
f 136/29/47 190/35/47 141/34/47
f 26/29/48 120/16/48 191/35/48
f 118/16/49 129/43/49 33/35/49
f 177/28/50 180/32/50 10/40/50
f 31/28/51 114/27/51 181/32/51
f 113/27/52 110/23/52 182/32/52
f 163/25/53 166/31/53 9/37/53
f 29/25/54 105/24/54 167/31/54
f 104/24/55 96/20/55 168/31/55
f 149/22/56 152/60/56 158/52/56
f 27/22/57 91/21/57 153/60/57
f 90/21/58 68/61/58 154/60/58
f 135/19/59 138/29/59 7/34/59
f 25/19/60 63/18/60 139/29/60
f 62/18/61 59/4/61 140/29/61
f 121/16/62 124/33/62 11/43/62
f 23/16/63 73/6/63 125/33/63
f 71/6/64 82/26/64 126/33/64
f 75/15/65 115/27/65 80/26/65
f 17/15/66 101/14/66 116/27/66
f 99/14/67 109/23/67 22/27/67
f 102/12/68 106/24/68 5/23/68
f 20/12/69 87/11/69 107/24/69
f 85/11/70 95/20/70 21/24/70
f 88/9/71 92/21/71 4/20/71
f 18/9/72 46/8/72 93/21/72
f 44/8/73 67/61/73 19/21/73
f 74/6/74 77/62/74 6/26/74
f 16/6/75 54/5/75 78/62/75
f 56/5/76 1/63/76 79/62/76
f 47/3/77 64/18/77 3/17/77
f 13/3/78 55/2/78 65/18/78
f 14/2/79 2/4/79 15/18/79
f 34/56/80 40/53/80 8/52/80
